<?xml version="1.0" encoding="utf-8"?>
<!-- Generator: Adobe Illustrator 24.1.2, SVG Export Plug-In . SVG Version: 6.00 Build 0)  -->
<svg version="1.1" id="Livello_1" xmlns="http://www.w3.org/2000/svg" xmlns:xlink="http://www.w3.org/1999/xlink" x="0px" y="0px"
	 viewBox="0 0 20 20" style="enable-background:new 0 0 20 20;" xml:space="preserve">
<style type="text/css">
	.st0{fill:#EE313C;}
	.st1{fill:none;stroke:#000000;stroke-width:2;stroke-miterlimit:10;}
	.st2{fill:none;stroke:#FFFFFF;stroke-width:2;stroke-miterlimit:10;}
	.st3{fill:#0078D7;}
	.st4{fill:none;stroke:#EE313C;stroke-width:2;stroke-miterlimit:10;}
	.st5{fill:none;stroke:#0078D7;stroke-width:2;stroke-miterlimit:10;}
	.st6{fill:#FFFFFF;}
	.st7{clip-path:url(#SVGID_2_);fill:none;stroke:#EE313C;stroke-width:2;stroke-miterlimit:10;}
	.st8{clip-path:url(#SVGID_4_);}
	.st9{clip-path:url(#SVGID_6_);}
	.st10{clip-path:url(#SVGID_8_);fill:none;stroke:#000000;stroke-width:2;stroke-miterlimit:10;}
	.st11{clip-path:url(#SVGID_10_);}
	.st12{clip-path:url(#SVGID_12_);}
</style>
<g>
	<path class="st6" d="M17.98,9.68c0,0.83-0.69,1.5-1.52,1.5s-1.5-0.67-1.5-1.5C14.8,7.08,12.65,5,10,5c-2.76,0-5,2.24-5,5
		s2.24,5,5,5c1.15,0,2.19-0.4,3.03-1.05c-0.52-0.42-0.95-0.94-1.29-1.52C11.25,12.79,10.65,13,10,13c-1.65,0-3-1.35-3-3s1.35-3,3-3
		c1.55,0,2.81,1.18,2.97,2.68c0,1.93,1.57,3.5,3.5,3.5s3.52-1.57,3.52-3.5C19.81,4.32,15.41,0,10,0C4.49,0,0,4.49,0,10
		s4.49,10,10,10c3.84,0,7.17-2.17,8.85-5.35c-0.71,0.34-1.51,0.53-2.35,0.53c-0.13,0-0.27-0.01-0.4-0.02C14.63,16.89,12.44,18,10,18
		c-4.41,0-8-3.59-8-8s3.59-8,8-8C14.3,2,17.81,5.42,17.98,9.68z"/>
</g>
</svg>
